<svg width="209.92" height="221.625" viewBox="0 0 209.92 221.625" xmlns="http://www.w3.org/2000/svg"><g id="svgGroup" stroke-linecap="round" fill-rule="nonzero" font-size="9pt" stroke="#d7be62" stroke-width="0" fill="#d7be62" style="stroke:#d7be62;stroke-width:0;fill:#d7be62"><path d="M 62.72 84.736 L 62.72 54.784 A 3.913 3.913 0 0 0 62.692 54.308 Q 62.482 52.591 60.659 52.487 A 4.248 4.248 0 0 0 60.416 52.48 L 20.992 52.48 Q 16.64 52.48 13.44 49.28 A 12.483 12.483 0 0 1 12.603 48.357 Q 10.24 45.468 10.24 41.728 A 11.191 11.191 0 0 1 10.343 40.197 Q 10.815 36.778 13.44 34.048 Q 16.124 31.257 19.618 30.807 A 10.742 10.742 0 0 1 20.992 30.72 L 60.416 30.72 A 3.913 3.913 0 0 0 60.892 30.692 Q 62.609 30.482 62.713 28.659 A 4.248 4.248 0 0 0 62.72 28.416 L 62.72 12.8 Q 62.72 7.705 66.054 4.104 A 14.196 14.196 0 0 1 66.432 3.712 A 13.735 13.735 0 0 1 67.509 2.741 Q 70.9 0 75.52 0 Q 80.615 0 84.216 3.334 A 14.196 14.196 0 0 1 84.608 3.712 A 13.735 13.735 0 0 1 85.579 4.789 Q 88.32 8.18 88.32 12.8 L 88.32 28.416 A 3.913 3.913 0 0 0 88.348 28.892 Q 88.558 30.609 90.381 30.713 A 4.248 4.248 0 0 0 90.624 30.72 L 188.928 30.72 A 10.72 10.72 0 0 1 190.357 30.814 Q 193.818 31.279 196.48 34.048 Q 199.211 36.888 199.611 40.473 A 11.294 11.294 0 0 1 199.68 41.728 Q 199.68 46.08 196.48 49.28 A 12.483 12.483 0 0 1 195.557 50.117 Q 192.668 52.48 188.928 52.48 L 90.624 52.48 A 3.913 3.913 0 0 0 90.148 52.508 Q 88.431 52.718 88.327 54.541 A 4.248 4.248 0 0 0 88.32 54.784 L 88.32 78.336 A 3.905 3.905 0 0 0 88.338 78.726 Q 88.523 80.567 90.563 80.141 A 4.832 4.832 0 0 0 90.624 80.128 Q 104.369 78.164 117.879 78.083 A 193.806 193.806 0 0 1 119.04 78.08 Q 162.048 78.08 185.984 97.024 A 71.42 71.42 0 0 1 188.175 98.83 Q 209.92 117.492 209.92 148.48 Q 209.92 173.739 194.469 192.531 A 74.543 74.543 0 0 1 193.408 193.792 Q 176.896 212.992 147.712 221.184 A 14.142 14.142 0 0 1 146.929 221.367 Q 142.496 222.267 138.496 220.032 A 12.679 12.679 0 0 1 137.083 219.117 Q 133.88 216.72 132.608 212.48 A 13.294 13.294 0 0 1 132.419 211.712 Q 131.624 208.011 133.186 204.646 A 12.552 12.552 0 0 1 133.632 203.776 A 12.817 12.817 0 0 1 134.492 202.444 Q 136.728 199.416 140.544 198.144 Q 161.024 191.744 172.672 178.432 A 55.413 55.413 0 0 0 174.252 176.544 Q 184.32 163.95 184.32 148.48 A 60.543 60.543 0 0 0 184.284 146.383 Q 183.4 120.874 160.768 109.312 A 2.589 2.589 0 0 0 160.548 109.214 Q 159.158 108.674 158.208 110.336 Q 141.591 155.3 112.378 181.835 A 140.156 140.156 0 0 1 109.568 184.32 Q 78.336 211.2 46.08 211.2 A 67.309 67.309 0 0 1 43.809 211.162 Q 24.402 210.507 12.544 198.528 A 40.228 40.228 0 0 1 9.013 194.45 Q 0.483 183.142 0.026 165.819 A 75.09 75.09 0 0 1 0 163.84 A 79.509 79.509 0 0 1 0.08 160.267 Q 1.134 136.827 16.128 118.144 A 84.694 84.694 0 0 1 21.404 112.171 Q 36.354 96.764 59.898 87.934 A 138.865 138.865 0 0 1 60.928 87.552 A 3.525 3.525 0 0 0 61.468 87.266 Q 62.72 86.448 62.72 84.736 Z M 88.32 106.24 L 88.32 169.216 A 0.701 0.701 0 0 0 88.607 169.787 Q 88.713 169.871 88.859 169.94 A 1.827 1.827 0 0 0 88.96 169.984 Q 89.6 170.24 90.112 169.984 Q 117.597 147.204 133.825 106.701 A 226.676 226.676 0 0 0 134.912 103.936 A 4.752 4.752 0 0 0 134.951 103.769 Q 135.33 101.977 133.79 101.892 A 2.872 2.872 0 0 0 133.632 101.888 Q 127.728 101.232 121.263 101.136 A 150.279 150.279 0 0 0 119.04 101.12 Q 103.654 101.12 91.002 103.605 A 111.688 111.688 0 0 0 90.624 103.68 Q 88.396 104.175 88.323 106.106 A 3.509 3.509 0 0 0 88.32 106.24 Z M 62.72 183.552 L 62.72 114.688 Q 62.72 112.384 60.672 113.408 Q 46.029 120.617 37.135 131.196 A 57.303 57.303 0 0 0 34.816 134.144 A 54.392 54.392 0 0 0 33.3 136.315 Q 26.633 146.382 25.739 157.731 A 45.145 45.145 0 0 0 25.6 161.28 Q 25.6 174.336 31.616 181.248 Q 37.632 188.16 48.64 188.16 A 28.213 28.213 0 0 0 49.572 188.144 Q 53.79 188.005 59.596 186.63 A 88.789 88.789 0 0 0 60.672 186.368 A 3.443 3.443 0 0 0 61.201 186.192 Q 62.63 185.575 62.715 183.783 A 4.885 4.885 0 0 0 62.72 183.552 Z" vector-effect="non-scaling-stroke"/></g></svg>